<svg width="26" height="20" viewBox="0 0 26 20" fill="none" xmlns="http://www.w3.org/2000/svg">
<path d="M23.066 1.81829C20.7252 -0.330707 16.9298 -0.330707 14.589 1.81829L13 3.27569L11.4096 1.81829C9.06883 -0.330707 5.27483 -0.330707 2.93403 1.81829C0.300634 4.23469 0.300634 8.14489 2.93403 10.5613L13 19.7999L23.066 10.5613C25.698 8.14489 25.698 4.23329 23.066 1.81829ZM21.5736 9.12489L13 17.1259L4.42503 9.12489C3.56123 8.33109 3.22663 7.29509 3.22663 6.19329C3.22663 5.09149 3.41983 4.18709 4.28503 3.39469C5.04803 2.69329 6.07423 2.30689 7.17323 2.30689C8.27083 2.30689 9.29703 2.97329 10.06 3.67609L13 6.23109L15.9386 3.67469C16.703 2.97189 17.7278 2.30549 18.8268 2.30549C19.9258 2.30549 20.952 2.69189 21.715 3.39329C22.5802 4.18569 22.772 5.09009 22.772 6.19189C22.772 7.29369 22.4388 8.33109 21.5736 9.12489Z" fill="#E03A4D"/>
</svg>