<svg width="28" height="28" viewBox="0 0 28 28" fill="none" xmlns="http://www.w3.org/2000/svg">
<path d="M14 3.5C19.775 3.5 24.5 8.225 24.5 14C24.5 19.775 19.775 24.5 14 24.5C8.225 24.5 3.5 19.775 3.5 14C3.5 8.225 8.225 3.5 14 3.5ZM14 1.75C7.2625 1.75 1.75 7.2625 1.75 14C1.75 20.7375 7.2625 26.25 14 26.25C20.7375 26.25 26.25 20.7375 26.25 14C26.25 7.2625 20.7375 1.75 14 1.75Z" fill="black"/>
<path d="M21 13.125H14.875V7H13.125V13.125H7V14.875H13.125V21H14.875V14.875H21V13.125Z" fill="black"/>
</svg>
