<svg width="24" height="24" viewBox="0 0 24 24" fill="none" xmlns="http://www.w3.org/2000/svg">
<g clip-path="url(#clip0_1606_4726)">
<path d="M21.3338 2.66699H2.66713C2.31351 2.66699 1.97437 2.80747 1.72433 3.05752C1.47428 3.30756 1.3338 3.6467 1.3338 4.00033V20.0003C1.3338 20.3539 1.47428 20.6931 1.72433 20.9431C1.97437 21.1932 2.31351 21.3337 2.66713 21.3337H21.3338C21.6874 21.3337 22.0266 21.1932 22.2766 20.9431C22.5267 20.6931 22.6671 20.3539 22.6671 20.0003V4.00033C22.6671 3.6467 22.5267 3.30756 22.2766 3.05752C22.0266 2.80747 21.6874 2.66699 21.3338 2.66699ZM2.66713 20.0003V4.00033H21.3338V20.0003H2.66713Z" fill="black"/>
<path d="M5.94604 9.33301C6.34161 9.33301 6.72829 9.21571 7.05719 8.99595C7.38608 8.77619 7.64243 8.46383 7.7938 8.09838C7.94518 7.73292 7.98479 7.33079 7.90762 6.94283C7.83045 6.55487 7.63996 6.1985 7.36026 5.9188C7.08055 5.63909 6.72419 5.44861 6.33623 5.37144C5.94826 5.29427 5.54613 5.33387 5.18068 5.48525C4.81523 5.63662 4.50287 5.89297 4.28311 6.22187C4.06334 6.55077 3.94604 6.93745 3.94604 7.33301C3.94604 7.86344 4.15676 8.37215 4.53183 8.74722C4.9069 9.1223 5.41561 9.33301 5.94604 9.33301ZM5.94604 6.26634C6.15729 6.26502 6.36417 6.32646 6.54046 6.44286C6.71675 6.55926 6.8545 6.72539 6.93626 6.92017C7.01801 7.11496 7.04009 7.32964 6.99969 7.53699C6.95929 7.74434 6.85823 7.93502 6.70932 8.08487C6.56041 8.23471 6.37037 8.33697 6.16327 8.37867C5.95618 8.42037 5.74137 8.39964 5.54607 8.3191C5.35077 8.23857 5.18379 8.10186 5.06628 7.9263C4.94878 7.75075 4.88605 7.54426 4.88604 7.33301C4.88779 7.05242 5.00003 6.78382 5.19844 6.58541C5.39685 6.387 5.66546 6.27476 5.94604 6.27301V6.26634Z" fill="black"/>
<path d="M15.186 10.2466L11.586 13.8466L8.91938 11.1799C8.79447 11.0558 8.6255 10.9861 8.44938 10.9861C8.27325 10.9861 8.10429 11.0558 7.97938 11.1799L3.94604 15.2666V17.1533L8.47271 12.6266L10.666 14.7866L8.16605 17.2866H9.99938L15.6327 11.6533L19.9994 15.9999V14.1199L16.126 10.2466C16.0011 10.1224 15.8322 10.0527 15.656 10.0527C15.4799 10.0527 15.311 10.1224 15.186 10.2466Z" fill="black"/>
</g>
<defs>
<clipPath id="clip0_1606_4726">
<rect width="24" height="24" fill="white"/>
</clipPath>
</defs>
</svg>
