<svg width="23" height="33" viewBox="0 0 23 33" fill="none" xmlns="http://www.w3.org/2000/svg">
<path d="M7.66543 0C6.64875 0 5.67371 0.433426 4.95481 1.20493C4.23591 1.97643 3.83203 3.02282 3.83203 4.11389V24.6833C3.83203 25.7744 4.23591 26.8208 4.95481 27.5923C5.67371 28.3638 6.64875 28.7972 7.66543 28.7972H19.1656C20.1823 28.7972 21.1573 28.3638 21.8762 27.5923C22.5951 26.8208 22.999 25.7744 22.999 24.6833V4.11389C22.999 3.02282 22.5951 1.97643 21.8762 1.20493C21.1573 0.433426 20.1823 0 19.1656 0H7.66543ZM5.74873 4.11389C5.74873 3.56835 5.95067 3.04516 6.31012 2.65941C6.66957 2.27366 7.15709 2.05694 7.66543 2.05694H19.1656C19.6739 2.05694 20.1615 2.27366 20.5209 2.65941C20.8804 3.04516 21.0823 3.56835 21.0823 4.11389V24.6833C21.0823 25.2289 20.8804 25.752 20.5209 26.1378C20.1615 26.5235 19.6739 26.7403 19.1656 26.7403H7.66543C7.15709 26.7403 6.66957 26.5235 6.31012 26.1378C5.95067 25.752 5.74873 25.2289 5.74873 24.6833V4.11389Z" fill="black"/>
<path d="M0 8.22766C1.70939e-05 7.50554 0.177152 6.79615 0.513602 6.17078C0.850052 5.54541 1.33396 5.0261 1.9167 4.66504V25.7117C1.9167 27.0755 2.42154 28.3835 3.32017 29.3479C4.21879 30.3123 5.43759 30.854 6.70844 30.854H18.6533C18.3169 31.4794 17.8329 31.9987 17.2502 32.3598C16.6675 32.7209 16.0065 32.911 15.3336 32.911H6.70844C4.92925 32.911 3.22293 32.1525 1.96486 30.8024C0.70678 29.4522 0 27.6211 0 25.7117V8.22766Z" fill="black"/>
</svg>
