<svg width="9" height="18" viewBox="0 0 9 18" fill="none" xmlns="http://www.w3.org/2000/svg">
<path d="M7.13499 17.1668C6.96069 17.1674 6.78848 17.129 6.63101 17.0543C6.47353 16.9796 6.33479 16.8705 6.22499 16.7352L0.589988 9.73516C0.418392 9.5264 0.324585 9.26455 0.324585 8.99433C0.324585 8.7241 0.418392 8.46225 0.589988 8.25349L6.42332 1.25349C6.62135 1.01524 6.90591 0.865411 7.21441 0.836968C7.52291 0.808525 7.83007 0.903797 8.06832 1.10183C8.30657 1.29985 8.4564 1.58442 8.48485 1.89291C8.51329 2.20141 8.41802 2.50857 8.21999 2.74683L3.00499 9.00016L8.04499 15.2535C8.18765 15.4247 8.27828 15.6333 8.30613 15.8544C8.33399 16.0756 8.29792 16.3 8.20219 16.5013C8.10646 16.7026 7.95507 16.8723 7.76595 16.9902C7.57682 17.1081 7.35786 17.1694 7.13499 17.1668Z" fill="#737476"/>
</svg>
