<svg width="28" height="28" viewBox="0 0 28 28" fill="none" xmlns="http://www.w3.org/2000/svg">
<path d="M23.625 14.6645V13.9995V13.3258L25.305 11.8558C25.6147 11.5828 25.8179 11.2091 25.8787 10.8009C25.9396 10.3926 25.8541 9.97589 25.6375 9.6245L23.5725 6.1245C23.419 5.85873 23.1984 5.63798 22.9327 5.48441C22.667 5.33083 22.3656 5.24982 22.0587 5.2495C21.8685 5.24804 21.6794 5.2776 21.4987 5.337L19.3725 6.0545C19.0054 5.81056 18.6224 5.59132 18.2262 5.39825L17.78 3.19325C17.7 2.79041 17.4808 2.42854 17.1609 2.17099C16.8409 1.91344 16.4406 1.77663 16.03 1.7845H11.935C11.5243 1.77663 11.124 1.91344 10.8041 2.17099C10.4841 2.42854 10.265 2.79041 10.185 3.19325L9.73873 5.39825C9.33967 5.59128 8.95383 5.81051 8.58373 6.0545L6.50123 5.302C6.31861 5.25442 6.1295 5.23669 5.94123 5.2495C5.63434 5.24982 5.33294 5.33083 5.06724 5.48441C4.80155 5.63798 4.58092 5.85873 4.42748 6.1245L2.36248 9.6245C2.15824 9.97537 2.08235 10.3863 2.14779 10.787C2.21324 11.1877 2.41596 11.5531 2.72123 11.8208L4.37498 13.3345V14.6733L2.72123 16.1433C2.40734 16.4128 2.19908 16.7847 2.1334 17.1932C2.06773 17.6017 2.14889 18.0202 2.36248 18.3745L4.42748 21.8745C4.58092 22.1403 4.80155 22.361 5.06724 22.5146C5.33294 22.6682 5.63434 22.7492 5.94123 22.7495C6.13141 22.751 6.32056 22.7214 6.50123 22.662L8.62748 21.9445C8.99457 22.1884 9.3775 22.4077 9.77373 22.6007L10.22 24.8058C10.3 25.2086 10.5191 25.5705 10.8391 25.828C11.159 26.0856 11.5593 26.2224 11.97 26.2145H16.1C16.5106 26.2224 16.9109 26.0856 17.2309 25.828C17.5508 25.5705 17.77 25.2086 17.85 24.8058L18.2962 22.6007C18.6953 22.4077 19.0811 22.1885 19.4512 21.9445L21.5687 22.662C21.7494 22.7214 21.9385 22.751 22.1287 22.7495C22.4356 22.7492 22.737 22.6682 23.0027 22.5146C23.2684 22.361 23.489 22.1403 23.6425 21.8745L25.6375 18.3745C25.8417 18.0236 25.9176 17.6127 25.8522 17.212C25.7867 16.8113 25.584 16.4459 25.2787 16.1783L23.625 14.6645ZM22.0587 20.9995L19.0575 19.9845C18.3549 20.5796 17.5519 21.0448 16.6862 21.3583L16.065 24.4995H11.935L11.3137 21.3933C10.4548 21.0709 9.65623 20.6065 8.95123 20.0195L5.94123 20.9995L3.87623 17.4995L6.25623 15.3995C6.09444 14.4938 6.09444 13.5665 6.25623 12.6608L3.87623 10.4995L5.94123 6.9995L8.94248 8.0145C9.64505 7.41941 10.448 6.95422 11.3137 6.64075L11.935 3.4995H16.065L16.6862 6.60575C17.5451 6.92812 18.3437 7.3925 19.0487 7.9795L22.0587 6.9995L24.1237 10.4995L21.7437 12.5995C21.9055 13.5052 21.9055 14.4325 21.7437 15.3383L24.1237 17.4995L22.0587 20.9995Z" fill="#2E9CCA"/>
<path d="M14 19.25C12.9616 19.25 11.9466 18.9421 11.0833 18.3652C10.2199 17.7883 9.54699 16.9684 9.14963 16.0091C8.75227 15.0498 8.64831 13.9942 8.85088 12.9758C9.05345 11.9574 9.55347 11.0219 10.2877 10.2877C11.0219 9.55347 11.9574 9.05345 12.9758 8.85088C13.9942 8.64831 15.0498 8.75227 16.0091 9.14963C16.9684 9.54699 17.7883 10.2199 18.3652 11.0833C18.9421 11.9466 19.25 12.9616 19.25 14C19.257 14.6914 19.126 15.3772 18.8647 16.0174C18.6033 16.6575 18.2169 17.239 17.728 17.728C17.239 18.2169 16.6575 18.6033 16.0174 18.8647C15.3772 19.126 14.6914 19.257 14 19.25ZM14 10.5C13.5374 10.4892 13.0775 10.5724 12.648 10.7445C12.2185 10.9165 11.8283 11.174 11.5011 11.5011C11.174 11.8283 10.9165 12.2185 10.7445 12.648C10.5724 13.0775 10.4892 13.5374 10.5 14C10.4892 14.4626 10.5724 14.9225 10.7445 15.352C10.9165 15.7815 11.174 16.1717 11.5011 16.4989C11.8283 16.826 12.2185 17.0835 12.648 17.2555C13.0775 17.4276 13.5374 17.5108 14 17.5C14.4626 17.5108 14.9225 17.4276 15.352 17.2555C15.7815 17.0835 16.1717 16.826 16.4989 16.4989C16.826 16.1717 17.0835 15.7815 17.2555 15.352C17.4276 14.9225 17.5108 14.4626 17.5 14C17.5108 13.5374 17.4276 13.0775 17.2555 12.648C17.0835 12.2185 16.826 11.8283 16.4989 11.5011C16.1717 11.174 15.7815 10.9165 15.352 10.7445C14.9225 10.5724 14.4626 10.4892 14 10.5Z" fill="#2E9CCA"/>
</svg>
