<svg width="38" height="38" viewBox="0 0 38 38" fill="none" xmlns="http://www.w3.org/2000/svg">
<path fill-rule="evenodd" clip-rule="evenodd" d="M19 0.666626C8.87496 0.666626 0.666626 8.87496 0.666626 19C0.666626 29.125 8.87496 37.3333 19 37.3333C29.125 37.3333 37.3333 29.125 37.3333 19C37.3333 8.87496 29.125 0.666626 19 0.666626ZM25.1783 15.1783C25.4819 14.864 25.6499 14.443 25.6461 14.006C25.6423 13.569 25.467 13.1509 25.158 12.8419C24.849 12.5329 24.431 12.3576 23.994 12.3538C23.557 12.35 23.136 12.518 22.8216 12.8216L19 16.6433L15.1783 12.8216C15.0245 12.6624 14.8406 12.5355 14.6373 12.4481C14.434 12.3608 14.2153 12.3148 13.994 12.3129C13.7727 12.311 13.5532 12.3531 13.3484 12.4369C13.1435 12.5207 12.9575 12.6445 12.801 12.801C12.6445 12.9575 12.5207 13.1435 12.4369 13.3484C12.3531 13.5532 12.311 13.7727 12.3129 13.994C12.3148 14.2153 12.3608 14.434 12.4481 14.6373C12.5355 14.8406 12.6624 15.0245 12.8216 15.1783L16.6433 19L12.8216 22.8216C12.6624 22.9754 12.5355 23.1593 12.4481 23.3626C12.3608 23.566 12.3148 23.7847 12.3129 24.006C12.311 24.2273 12.3531 24.4467 12.4369 24.6515C12.5207 24.8564 12.6445 25.0425 12.801 25.1989C12.9575 25.3554 13.1435 25.4792 13.3484 25.563C13.5532 25.6468 13.7727 25.689 13.994 25.687C14.2153 25.6851 14.434 25.6391 14.6373 25.5518C14.8406 25.4644 15.0245 25.3375 15.1783 25.1783L19 21.3566L22.8216 25.1783C23.136 25.4819 23.557 25.6499 23.994 25.6461C24.431 25.6423 24.849 25.467 25.158 25.158C25.467 24.849 25.6423 24.431 25.6461 23.994C25.6499 23.557 25.4819 23.136 25.1783 22.8216L21.3566 19L25.1783 15.1783Z" fill="#fff"/>
</svg>
