<svg width="16" height="16" viewBox="0 0 16 16" fill="none" xmlns="http://www.w3.org/2000/svg">
<path d="M14.755 1.69425C14.6282 1.55056 14.4921 1.41528 14.3478 1.28925C13.658 0.68625 12.7235 0.2655 11.5678 0.25H11.5433C11.4743 0.25 11.4045 0.254 11.336 0.258C10.618 0.2905 8.54576 1.1375 8.02876 2.80975C7.51301 1.13725 5.44026 0.28975 4.72201 0.258C4.65526 0.254 4.58451 0.25 4.51726 0.25H4.49051C3.33626 0.26525 2.40176 0.68625 1.71301 1.28925C1.56902 1.41579 1.43293 1.55105 1.30551 1.69425C0.432009 2.693 0.0165087 4.1065 0.555509 5.3955C0.620759 5.57775 0.695259 5.76625 0.780009 5.95825C2.04951 8.8485 5.50126 12.8293 7.20901 14.704C7.57551 15.1623 7.85601 15.514 8.02326 15.7212V15.7445L8.02526 15.7425C8.02526 15.7463 8.02926 15.7483 8.03101 15.7502V15.7353L8.03251 15.733L8.03451 15.7353V15.7502C8.03901 15.7483 8.04101 15.746 8.04101 15.7425L8.04301 15.7445V15.7212C8.21001 15.514 8.49176 15.1625 8.85726 14.704C10.5643 12.8293 14.0148 8.8485 15.2838 5.95825C15.3652 5.77341 15.44 5.58571 15.508 5.3955C16.0458 4.10525 15.6338 2.69175 14.758 1.692" stroke="#E03A4D" stroke-width="1" fill="#FFFFFF"/>
</svg>
