<svg width="23" height="23" viewBox="0 0 23 23" fill="none" xmlns="http://www.w3.org/2000/svg">
<path fill-rule="evenodd" clip-rule="evenodd" d="M6.77612 0.110437C7.998 0.054187 8.38758 0.041687 11.5001 0.041687C14.6126 0.041687 15.0022 0.0552287 16.223 0.110437C17.4438 0.165645 18.2772 0.360437 19.0063 0.642729C19.7699 0.93127 20.4626 1.38231 21.0355 1.96565C21.6188 2.53752 22.0688 3.22919 22.3563 3.99377C22.6397 4.72294 22.8334 5.55627 22.8897 6.77502C22.9459 7.99898 22.9584 8.38856 22.9584 11.5C22.9584 14.6125 22.9449 15.0021 22.8897 16.224C22.8345 17.4427 22.6397 18.2761 22.3563 19.0052C22.0688 19.7699 21.6181 20.4627 21.0355 21.0354C20.4626 21.6188 19.7699 22.0688 19.0063 22.3563C18.2772 22.6396 17.4438 22.8334 16.2251 22.8896C15.0022 22.9459 14.6126 22.9584 11.5001 22.9584C8.38758 22.9584 7.998 22.9448 6.77612 22.8896C5.55737 22.8344 4.72404 22.6396 3.99487 22.3563C3.23021 22.0687 2.53739 21.618 1.96466 21.0354C1.38173 20.4632 0.930618 19.7707 0.64279 19.0063C0.360498 18.2771 0.166748 17.4438 0.110498 16.225C0.054248 15.0011 0.041748 14.6115 0.041748 11.5C0.041748 8.38752 0.0552897 7.99794 0.110498 6.7771C0.165706 5.55627 0.360498 4.72294 0.64279 3.99377C0.931043 3.22927 1.3825 2.5368 1.96571 1.9646C2.53762 1.38179 3.22974 0.930691 3.99383 0.642729C4.723 0.360437 5.55633 0.166687 6.77508 0.110437H6.77612ZM16.1303 2.17294C14.922 2.11773 14.5595 2.10627 11.5001 2.10627C8.44071 2.10627 8.07821 2.11773 6.86987 2.17294C5.75216 2.22398 5.14591 2.41044 4.74175 2.56773C4.20737 2.77606 3.82508 3.02294 3.42404 3.42398C3.04388 3.79382 2.75131 4.24406 2.56779 4.74169C2.4105 5.14585 2.22404 5.7521 2.173 6.86981C2.11779 8.07815 2.10633 8.44065 2.10633 11.5C2.10633 14.5594 2.11779 14.9219 2.173 16.1302C2.22404 17.2479 2.4105 17.8542 2.56779 18.2584C2.75112 18.7552 3.04383 19.2063 3.42404 19.5761C3.79383 19.9563 4.24487 20.249 4.74175 20.4323C5.14591 20.5896 5.75216 20.7761 6.86987 20.8271C8.07821 20.8823 8.43966 20.8938 11.5001 20.8938C14.5605 20.8938 14.922 20.8823 16.1303 20.8271C17.248 20.7761 17.8542 20.5896 18.2584 20.4323C18.7928 20.224 19.1751 19.9771 19.5761 19.5761C19.9563 19.2063 20.249 18.7552 20.4324 18.2584C20.5897 17.8542 20.7761 17.2479 20.8272 16.1302C20.8824 14.9219 20.8938 14.5594 20.8938 11.5C20.8938 8.44065 20.8824 8.07815 20.8272 6.86981C20.7761 5.7521 20.5897 5.14585 20.4324 4.74169C20.224 4.20731 19.9772 3.82502 19.5761 3.42398C19.2063 3.04384 18.756 2.75128 18.2584 2.56773C17.8542 2.41044 17.248 2.22398 16.1303 2.17294ZM10.0365 15.0323C10.8539 15.3726 11.764 15.4185 12.6115 15.1622C13.4589 14.906 14.1911 14.3635 14.683 13.6274C15.1749 12.8912 15.396 12.0072 15.3085 11.1262C15.221 10.2452 14.8303 9.42187 14.2032 8.7969C13.8035 8.39739 13.3201 8.09149 12.7879 7.90121C12.2558 7.71094 11.688 7.64102 11.1256 7.69649C10.5632 7.75197 10.02 7.93145 9.53529 8.22203C9.05056 8.51261 8.63627 8.90705 8.32227 9.37695C8.00827 9.84685 7.80236 10.3805 7.71937 10.9396C7.63638 11.4986 7.67836 12.0691 7.84231 12.6099C8.00626 13.1508 8.28808 13.6486 8.6675 14.0674C9.04691 14.4863 9.51448 14.8158 10.0365 15.0323ZM7.3355 7.33544C7.8824 6.78854 8.53166 6.35471 9.24622 6.05873C9.96078 5.76275 10.7266 5.61041 11.5001 5.61041C12.2735 5.61041 13.0394 5.76275 13.7539 6.05873C14.4685 6.35471 15.1178 6.78854 15.6647 7.33544C16.2116 7.88234 16.6454 8.5316 16.9414 9.24616C17.2374 9.96072 17.3897 10.7266 17.3897 11.5C17.3897 12.2735 17.2374 13.0393 16.9414 13.7539C16.6454 14.4684 16.2116 15.1177 15.6647 15.6646C14.5601 16.7691 13.0621 17.3896 11.5001 17.3896C9.93806 17.3896 8.44001 16.7691 7.3355 15.6646C6.23098 14.5601 5.61047 13.062 5.61047 11.5C5.61047 9.938 6.23098 8.43995 7.3355 7.33544ZM18.6959 6.48752C18.8314 6.35968 18.9399 6.20594 19.015 6.03541C19.09 5.86488 19.1301 5.68103 19.1328 5.49474C19.1355 5.30845 19.1008 5.12351 19.0308 4.95086C18.9608 4.77822 18.8568 4.62139 18.725 4.48964C18.5933 4.3579 18.4365 4.25393 18.2638 4.18389C18.0912 4.11385 17.9062 4.07916 17.7199 4.08188C17.5337 4.08459 17.3498 4.12466 17.1793 4.1997C17.0087 4.27475 16.855 4.38324 16.7272 4.51877C16.4785 4.78234 16.3424 5.13244 16.3477 5.49474C16.353 5.85704 16.4992 6.20302 16.7555 6.45923C17.0117 6.71544 17.3576 6.86172 17.7199 6.867C18.0822 6.87228 18.4323 6.73616 18.6959 6.48752Z" fill="white"/>
</svg>
