<svg width="18" height="18" viewBox="0 0 18 18" fill="none" xmlns="http://www.w3.org/2000/svg">
<path d="M3.75 15V3H5.25V8.25L7.125 7.125L9 8.25V3H12.75V8.31C12.9975 8.2725 13.245 8.25 13.5 8.25C13.755 8.25 14.0025 8.2725 14.25 8.31V3C14.25 2.175 13.575 1.5 12.75 1.5H3.75C2.925 1.5 2.25 2.175 2.25 3V15C2.25 15.825 2.925 16.5 3.75 16.5H9.195C8.88 16.05 8.6325 15.54 8.4675 15H3.75ZM13.5 9.75C11.43 9.75 9.75 11.43 9.75 13.5C9.75 15.57 11.43 17.25 13.5 17.25C15.57 17.25 17.25 15.57 17.25 13.5C17.25 11.43 15.57 9.75 13.5 9.75ZM12.5625 15.375V11.625L15.5625 13.5L12.5625 15.375Z" fill="#2E9CCA"/>
</svg>
