<svg width="20" height="20" viewBox="0 0 20 20" fill="none" xmlns="http://www.w3.org/2000/svg">
<path d="M2 3.498C2 2.67 2.671 2 3.5 2H4.5C5.327 2 5.999 2.67 5.999 3.498V16.48C5.999 17.307 5.327 17.977 4.499 17.977H3.499C2.671 17.977 2 17.307 2 16.48V3.498ZM3.5 2.998C3.36739 2.998 3.24021 3.05068 3.14645 3.14445C3.05268 3.23821 3 3.36539 3 3.498V16.48C3.00026 16.6124 3.05306 16.7394 3.1468 16.8329C3.24054 16.9265 3.36756 16.979 3.5 16.979H4.5C4.63243 16.9787 4.75936 16.9259 4.85291 16.8322C4.94646 16.7385 4.999 16.6114 4.999 16.479V3.499C4.999 3.36639 4.94632 3.23921 4.85255 3.14545C4.75879 3.05168 4.63161 2.999 4.499 2.999H3.499L3.5 2.998ZM6.998 3.498C6.998 2.67 7.67 2 8.498 2H9.498C10.326 2 10.997 2.67 10.997 3.498V16.48C10.997 17.307 10.326 17.977 9.497 17.977H8.497C7.67 17.977 6.998 17.307 6.998 16.48V3.498ZM8.498 2.998C8.36539 2.998 8.23821 3.05068 8.14445 3.14445C8.05068 3.23821 7.998 3.36539 7.998 3.498V16.48C7.99826 16.6124 8.05106 16.7394 8.1448 16.8329C8.23854 16.9265 8.36556 16.979 8.498 16.979H9.498C9.63061 16.979 9.75778 16.9263 9.85155 16.8326C9.94532 16.7388 9.998 16.6116 9.998 16.479V3.499C9.998 3.36639 9.94532 3.23921 9.85155 3.14545C9.75778 3.05168 9.63061 2.999 9.498 2.999H8.498V2.998ZM15.718 6.157C15.6723 5.95904 15.5869 5.77243 15.4669 5.60848C15.3469 5.44453 15.1949 5.30666 15.02 5.20324C14.8452 5.09982 14.6511 5.03299 14.4496 5.00682C14.2482 4.98065 14.0435 4.99568 13.848 5.051L13.103 5.261C12.7392 5.3639 12.4278 5.60052 12.2312 5.92342C12.0346 6.24632 11.9674 6.6316 12.043 7.002L14.046 16.802C14.0869 17.0006 14.1677 17.1889 14.2834 17.3554C14.3992 17.5219 14.5474 17.6632 14.7193 17.7708C14.8912 17.8784 15.0832 17.95 15.2835 17.9813C15.4839 18.0126 15.6885 18.003 15.885 17.953L16.87 17.703C17.66 17.503 18.144 16.709 17.962 15.916L15.718 6.156V6.157ZM14.12 6.012C14.1852 5.99345 14.2534 5.98833 14.3206 5.99696C14.3878 6.00559 14.4525 6.02779 14.5109 6.06221C14.5693 6.09662 14.62 6.14254 14.6601 6.19717C14.7002 6.2518 14.7287 6.314 14.744 6.38L16.987 16.14C17.0158 16.2671 16.9939 16.4003 16.9259 16.5115C16.8579 16.6226 16.7492 16.7028 16.623 16.735L15.638 16.985C15.5725 17.0017 15.5044 17.0049 15.4376 16.9945C15.3709 16.9841 15.3069 16.9603 15.2496 16.9245C15.1924 16.8887 15.1429 16.8417 15.1043 16.7863C15.0657 16.7308 15.0387 16.6681 15.025 16.602L13.022 6.802C12.997 6.67864 13.0195 6.55041 13.085 6.44289C13.1504 6.33538 13.254 6.2565 13.375 6.222L14.12 6.012Z" fill="white"/>
</svg>
