<svg width="66" height="51" viewBox="0 0 66 51" fill="none" xmlns="http://www.w3.org/2000/svg">
<path d="M62.7504 1.8844C61.4306 0.757197 59.7172 0.200145 57.9869 0.335683C56.2565 0.471221 54.6508 1.28826 53.5226 2.60722L25.3414 35.5655L10.1806 22.9092C9.58038 22.393 8.88356 22.0011 8.1306 21.7565C7.37764 21.5119 6.58357 21.4194 5.79455 21.4844C5.00553 21.5494 4.2373 21.7706 3.53451 22.1351C2.83172 22.4996 2.20839 23.0001 1.70077 23.6077C1.19314 24.2152 0.811335 24.9176 0.577551 25.674C0.343767 26.4304 0.262667 27.2257 0.338962 28.0137C0.415257 28.8017 0.647427 29.5667 1.02198 30.2642C1.39652 30.9616 1.90598 31.5777 2.52073 32.0766L22.8326 49.036C23.4589 49.5582 24.1861 49.9458 24.9687 50.1746C25.7514 50.4035 26.5728 50.4688 27.3818 50.3663C28.2398 50.3 29.0763 50.0652 29.8434 49.6752C30.6105 49.2853 31.2931 48.7479 31.8523 48.0938L63.469 11.1094C64.595 9.78895 65.1511 8.07574 65.0153 6.34572C64.8796 4.6157 64.063 3.01022 62.7448 1.88159" fill="#F4F4F4"/>
</svg>
