<svg width="22" height="21" viewBox="0 0 22 21" fill="none" xmlns="http://www.w3.org/2000/svg">
<path d="M11.412 0.37365L20.762 6.53065C21.1424 6.78106 21.4547 7.12204 21.6708 7.52296C21.8869 7.92389 22 8.3722 22 8.82765V17.7496C22 18.6116 21.6576 19.4383 21.0481 20.0477C20.4386 20.6572 19.612 20.9996 18.75 20.9996H3.25C2.38805 20.9996 1.5614 20.6572 0.951903 20.0477C0.34241 19.4383 1.70369e-07 18.6116 1.70369e-07 17.7496V8.82765C-0.000160188 8.37203 0.112884 7.92352 0.328975 7.5224C0.545066 7.12129 0.857431 6.78016 1.238 6.52965L10.588 0.37265C10.7105 0.292004 10.8539 0.249023 11.0005 0.249023C11.1471 0.249023 11.2905 0.292004 11.413 0.37265L11.412 0.37365ZM20.5 9.44565L11.398 15.1356C11.2787 15.2103 11.1408 15.25 11 15.25C10.8592 15.25 10.7213 15.2103 10.602 15.1356L1.5 9.44665V17.7496C1.5 18.7156 2.284 19.4996 3.25 19.4996H18.75C19.2141 19.4996 19.6592 19.3153 19.9874 18.9871C20.3156 18.6589 20.5 18.2138 20.5 17.7496V9.44565ZM11 1.89765L2.063 7.78365C2.00103 7.82404 1.9428 7.86988 1.889 7.92065L11 13.6146L20.11 7.92065C20.0568 7.86997 19.9993 7.82412 19.938 7.78365L11 1.89765Z" fill="#2E9CCA"/>
</svg>
