<svg width="16" height="16" viewBox="0 0 16 16" fill="none" xmlns="http://www.w3.org/2000/svg">
<path d="M8.29425 0.410308L14.9728 4.80817C15.2446 4.98703 15.4676 5.23059 15.622 5.51696C15.7763 5.80334 15.8571 6.12356 15.8571 6.44888V12.8217C15.8571 13.4374 15.6125 14.0279 15.1772 14.4632C14.7418 14.8986 14.1514 15.1432 13.5357 15.1432H2.46425C1.84857 15.1432 1.25811 14.8986 0.822753 14.4632C0.387401 14.0279 0.142822 13.4374 0.142822 12.8217V6.44888C0.142708 6.12344 0.223454 5.80307 0.377805 5.51656C0.532155 5.23005 0.755273 4.98638 1.02711 4.80745L7.70568 0.409594C7.79315 0.35199 7.89559 0.321289 8.00032 0.321289C8.10506 0.321289 8.20749 0.35199 8.29497 0.409594L8.29425 0.410308ZM14.7857 6.89031L8.28425 10.9546C8.19903 11.008 8.10051 11.0362 7.99997 11.0362C7.89942 11.0362 7.8009 11.008 7.71568 10.9546L1.21425 6.89102V12.8217C1.21425 13.5117 1.77425 14.0717 2.46425 14.0717H13.5357C13.8672 14.0717 14.1851 13.94 14.4196 13.7056C14.654 13.4712 14.7857 13.1533 14.7857 12.8217V6.89031ZM7.99997 1.49888L1.61639 5.70317C1.57213 5.73201 1.53053 5.76476 1.49211 5.80102L7.99997 9.86817L14.5071 5.80102C14.4691 5.76482 14.428 5.73208 14.3843 5.70317L7.99997 1.49888Z" fill="#6176AE"/>
</svg>
