<svg width="10" height="10" viewBox="0 0 10 10" fill="none" xmlns="http://www.w3.org/2000/svg">
<path d="M9.5 2C9.36739 2 9.24021 2.05268 9.14645 2.14645C9.05268 2.24021 9 2.36739 9 2.5V7.5C9 7.89782 8.84196 8.27936 8.56066 8.56066C8.27936 8.84196 7.89782 9 7.5 9H2.5C2.36739 9 2.24021 9.05268 2.14645 9.14645C2.05268 9.24021 2 9.36739 2 9.5C2 9.63261 2.05268 9.75979 2.14645 9.85355C2.24021 9.94732 2.36739 10 2.5 10H7.5C8.16304 10 8.79893 9.73661 9.26777 9.26777C9.73661 8.79893 10 8.16304 10 7.5V2.5C10 2.36739 9.94732 2.24021 9.85355 2.14645C9.75979 2.05268 9.63261 2 9.5 2ZM8 6.5V1.5C8 1.10218 7.84196 0.720644 7.56066 0.43934C7.27936 0.158035 6.89782 0 6.5 0H1.5C1.10218 0 0.720644 0.158035 0.43934 0.43934C0.158035 0.720644 0 1.10218 0 1.5V6.5C0 6.89782 0.158035 7.27936 0.43934 7.56066C0.720644 7.84196 1.10218 8 1.5 8H6.5C6.89782 8 7.27936 7.84196 7.56066 7.56066C7.84196 7.27936 8 6.89782 8 6.5ZM4 1H5V3.43L4.82 3.28C4.73016 3.20517 4.61693 3.16419 4.5 3.16419C4.38307 3.16419 4.26984 3.20517 4.18 3.28L4 3.43V1ZM1 6.5V1.5C1 1.36739 1.05268 1.24021 1.14645 1.14645C1.24021 1.05268 1.36739 1 1.5 1H3V4.5C2.99999 4.59558 3.02738 4.68916 3.07893 4.76966C3.13047 4.85015 3.204 4.91419 3.29082 4.95417C3.37764 4.99416 3.47409 5.00843 3.56877 4.99528C3.66344 4.98214 3.75236 4.94213 3.825 4.88L4.5 4.315L5.175 4.88C5.26557 4.95745 5.38083 5.00001 5.5 5C5.57234 4.99949 5.6438 4.98417 5.71 4.955C5.79679 4.91483 5.87024 4.85062 5.92164 4.76997C5.97304 4.68933 6.00024 4.59563 6 4.5V1H6.5C6.63261 1 6.75979 1.05268 6.85355 1.14645C6.94732 1.24021 7 1.36739 7 1.5V6.5C7 6.63261 6.94732 6.75979 6.85355 6.85355C6.75979 6.94732 6.63261 7 6.5 7H1.5C1.36739 7 1.24021 6.94732 1.14645 6.85355C1.05268 6.75979 1 6.63261 1 6.5Z" fill="white"/>
</svg>
