<svg width="24" height="24" viewBox="0 0 24 24" fill="none" xmlns="http://www.w3.org/2000/svg">
<path d="M21.0263 0C20.2603 0 19.5074 0.300375 18.9297 0.877096L9.01126 10.7635L8.79099 10.9837L8.73091 11.2971L8.04005 14.8015L7.72966 16.2713L9.1985 15.961L12.7029 15.2701L13.0163 15.21L13.2365 14.9897L23.1229 5.07134C23.537 4.65583 23.8188 4.12707 23.9329 3.55168C24.047 2.97629 23.9882 2.38 23.764 1.83794C23.5398 1.29588 23.1602 0.832296 22.673 0.505586C22.1859 0.178875 21.6129 0.00365612 21.0263 0.00200236V0ZM21.0263 1.94243C21.2616 1.94243 21.4909 2.06258 21.7151 2.28586C22.1617 2.73242 22.1617 3.21502 21.7151 3.66258L12.015 13.3607L10.2929 13.7051L10.6383 11.983L20.3384 2.28285C20.5617 2.05957 20.791 1.93942 21.0263 1.93942V1.94243ZM0 3.97497V24H20.025V10.7955L18.0225 12.798V21.9975H2.0025V5.97747H11.202L13.2045 3.97497H0Z" fill="#2E9CCA"/>
</svg>
