<svg width="20" height="20" viewBox="0 0 20 20" fill="none" xmlns="http://www.w3.org/2000/svg">
<g clip-path="url(#clip0)">
<path fill-rule="evenodd" clip-rule="evenodd" d="M3.875 14C3.93322 13.9224 4.00871 13.8594 4.09549 13.816C4.18228 13.7726 4.27797 13.75 4.375 13.75H7.5C7.66576 13.75 7.82473 13.8158 7.94194 13.9331C8.05915 14.0503 8.125 14.2092 8.125 14.375C8.125 14.5408 8.05915 14.6997 7.94194 14.8169C7.82473 14.9342 7.66576 15 7.5 15H4.6875L1.875 18.75H18.125L15.3125 15H12.5C12.3342 15 12.1753 14.9342 12.0581 14.8169C11.9408 14.6997 11.875 14.5408 11.875 14.375C11.875 14.2092 11.9408 14.0503 12.0581 13.9331C12.1753 13.8158 12.3342 13.75 12.5 13.75H15.625C15.722 13.75 15.8177 13.7726 15.9045 13.816C15.9913 13.8594 16.0668 13.9224 16.125 14L19.875 19C19.9446 19.0929 19.9871 19.2033 19.9975 19.3189C20.0079 19.4345 19.9859 19.5507 19.934 19.6545C19.8821 19.7583 19.8023 19.8456 19.7036 19.9067C19.6048 19.9677 19.4911 20 19.375 20H0.625C0.50893 20 0.395153 19.9677 0.296418 19.9067C0.197683 19.8456 0.117891 19.7583 0.0659833 19.6545C0.0140752 19.5507 -0.00789801 19.4345 0.00252572 19.3189C0.0129495 19.2033 0.0553583 19.0929 0.125 19L3.875 14Z" fill="white"/>
<path fill-rule="evenodd" clip-rule="evenodd" d="M10 1.25002C9.50754 1.25002 9.01991 1.34702 8.56494 1.53548C8.10997 1.72393 7.69657 2.00015 7.34835 2.34837C7.00013 2.69659 6.72391 3.10999 6.53545 3.56496C6.347 4.01993 6.25 4.50757 6.25 5.00002C6.25 5.49248 6.347 5.98012 6.53545 6.43509C6.72391 6.89006 7.00013 7.30346 7.34835 7.65168C7.69657 7.9999 8.10997 8.27612 8.56494 8.46457C9.01991 8.65303 9.50754 8.75002 10 8.75002C10.9946 8.75002 11.9484 8.35494 12.6517 7.65168C13.3549 6.94841 13.75 5.99459 13.75 5.00002C13.75 4.00546 13.3549 3.05164 12.6517 2.34837C11.9484 1.64511 10.9946 1.25002 10 1.25002ZM5 5.00002C5.00009 4.03781 5.27782 3.09605 5.79987 2.28776C6.32192 1.47948 7.0661 0.83899 7.94313 0.443158C8.82016 0.0473268 9.79278 -0.0870347 10.7443 0.0561958C11.6958 0.199426 12.5857 0.614165 13.3074 1.25065C14.029 1.88713 14.5517 2.71831 14.8126 3.64447C15.0736 4.57062 15.0617 5.55241 14.7786 6.47201C14.4954 7.39161 13.9529 8.20997 13.2161 8.82889C12.4794 9.44781 11.5797 9.841 10.625 9.96128V16.875C10.625 17.0408 10.5592 17.1998 10.4419 17.317C10.3247 17.4342 10.1658 17.5 10 17.5C9.83424 17.5 9.67527 17.4342 9.55806 17.317C9.44085 17.1998 9.375 17.0408 9.375 16.875V9.96252C8.16621 9.81023 7.05461 9.22182 6.24902 8.30782C5.44343 7.39382 4.99928 6.21712 5 4.99878V5.00002Z" fill="white"/>
</g>
<defs>
<clipPath id="clip0">
<rect width="20" height="20" fill="white"/>
</clipPath>
</defs>
</svg>
