<svg width="18" height="18" viewBox="0 0 18 18" fill="none" xmlns="http://www.w3.org/2000/svg">
<path d="M3 4.5H1.5V15C1.5 15.825 2.175 16.5 3 16.5H13.5V15H3V4.5ZM15 1.5H6C5.175 1.5 4.5 2.175 4.5 3V12C4.5 12.825 5.175 13.5 6 13.5H15C15.825 13.5 16.5 12.825 16.5 12V3C16.5 2.175 15.825 1.5 15 1.5ZM15 12H6V3H15V12ZM10.1325 7.62C10.44 7.0725 11.0175 6.75 11.355 6.27C11.715 5.76 11.5125 4.815 10.5 4.815C9.84 4.815 9.51 5.3175 9.375 5.7375L8.3475 5.31C8.6325 4.47 9.39 3.75 10.4925 3.75C11.415 3.75 12.0525 4.17 12.375 4.695C12.6525 5.145 12.81 5.9925 12.3825 6.6225C11.91 7.32 11.46 7.53 11.2125 7.98C11.115 8.16 11.0775 8.28 11.0775 8.865H9.9375C9.945 8.5575 9.8925 8.055 10.1325 7.62ZM9.7125 10.4625C9.7125 10.02 10.065 9.6825 10.5 9.6825C10.9425 9.6825 11.28 10.02 11.28 10.4625C11.28 10.8975 10.95 11.25 10.5 11.25C10.065 11.25 9.7125 10.8975 9.7125 10.4625Z" fill="#2E9CCA"/>
</svg>
