<svg width="55" height="55" viewBox="0 0 55 55" fill="none" xmlns="http://www.w3.org/2000/svg">
<circle cx="27.5" cy="27.5" r="27.5" fill="#2E9CCA"/>
<path d="M25.992 32.648C25.992 31.352 26.28 30.284 26.856 29.444C27.456 28.58 28.32 27.644 29.448 26.636C30.312 25.868 30.948 25.208 31.356 24.656C31.788 24.08 32.004 23.432 32.004 22.712C32.004 21.704 31.596 20.888 30.78 20.264C29.964 19.64 28.872 19.328 27.504 19.328C24.912 19.328 22.956 20.252 21.636 22.1L18.144 19.832C19.176 18.416 20.508 17.336 22.14 16.592C23.772 15.824 25.692 15.44 27.9 15.44C30.588 15.44 32.724 16.028 34.308 17.204C35.916 18.356 36.72 19.952 36.72 21.992C36.72 22.976 36.552 23.84 36.216 24.584C35.904 25.328 35.52 25.964 35.064 26.492C34.608 26.996 34.008 27.584 33.264 28.256C32.352 29.072 31.668 29.792 31.212 30.416C30.78 31.04 30.564 31.784 30.564 32.648H25.992ZM28.296 41.252C27.456 41.252 26.76 40.988 26.208 40.46C25.68 39.908 25.416 39.236 25.416 38.444C25.416 37.652 25.68 36.992 26.208 36.464C26.76 35.936 27.456 35.672 28.296 35.672C29.112 35.672 29.784 35.936 30.312 36.464C30.864 36.992 31.14 37.652 31.14 38.444C31.14 39.236 30.864 39.908 30.312 40.46C29.784 40.988 29.112 41.252 28.296 41.252Z" fill="white"/>
</svg>
