<svg width="24" height="24" viewBox="0 0 24 24" fill="none" xmlns="http://www.w3.org/2000/svg">
<path fill-rule="evenodd" clip-rule="evenodd" d="M2 7C2 5.67392 2.52678 4.40215 3.46447 3.46447C4.40215 2.52678 5.67392 2 7 2H17C18.3261 2 19.5979 2.52678 20.5355 3.46447C21.4732 4.40215 22 5.67392 22 7V17C22 18.3261 21.4732 19.5979 20.5355 20.5355C19.5979 21.4732 18.3261 22 17 22H7C5.67392 22 4.40215 21.4732 3.46447 20.5355C2.52678 19.5979 2 18.3261 2 17V7ZM7 4C6.20435 4 5.44129 4.31607 4.87868 4.87868C4.31607 5.44129 4 6.20435 4 7V17C4 17.7956 4.31607 18.5587 4.87868 19.1213C5.44129 19.6839 6.20435 20 7 20H17C17.7956 20 18.5587 19.6839 19.1213 19.1213C19.6839 18.5587 20 17.7956 20 17V7C20 6.20435 19.6839 5.44129 19.1213 4.87868C18.5587 4.31607 17.7956 4 17 4H7ZM12 7.5C10.552 7.5 10 8.552 10 9C10 9.26522 9.89464 9.51957 9.70711 9.70711C9.51957 9.89464 9.26522 10 9 10C8.73478 10 8.48043 9.89464 8.29289 9.70711C8.10536 9.51957 8 9.26522 8 9C8 7.448 9.448 5.5 12 5.5C13.156 5.5 14.17 5.789 14.909 6.435C15.664 7.096 16 8.017 16 9C16 10.188 15.694 11.028 15.118 11.668C14.8721 11.9328 14.5939 12.1656 14.29 12.361C14.1685 12.4411 14.0458 12.5195 13.922 12.596L13.904 12.607C13.78 12.685 13.668 12.757 13.557 12.83C13.207 13.066 13.064 13.242 13.007 13.356C12.961 13.444 12.93 13.561 12.979 13.794C13.0061 13.9226 13.0075 14.0552 12.9833 14.1843C12.9591 14.3135 12.9097 14.4366 12.8379 14.5466C12.693 14.7688 12.4656 14.9244 12.206 14.979C12.0774 15.0061 11.9448 15.0075 11.8157 14.9833C11.6865 14.9591 11.5634 14.9097 11.4534 14.8379C11.2312 14.693 11.0756 14.4656 11.021 14.206C10.895 13.606 10.938 13.009 11.225 12.447C11.498 11.912 11.943 11.505 12.443 11.17C12.583 11.076 12.72 10.99 12.842 10.913L12.851 10.907C12.973 10.831 13.079 10.765 13.179 10.697C13.384 10.561 13.525 10.447 13.632 10.329C13.806 10.136 14 9.813 14 9C14 8.483 13.836 8.154 13.591 7.94C13.33 7.711 12.844 7.5 12 7.5ZM12 15.781C11.8687 15.781 11.7386 15.8069 11.6173 15.8571C11.496 15.9074 11.3858 15.981 11.2929 16.0739C11.2 16.1668 11.1264 16.277 11.0761 16.3983C11.0259 16.5196 11 16.6497 11 16.781C11 16.9123 11.0259 17.0424 11.0761 17.1637C11.1264 17.285 11.2 17.3952 11.2929 17.4881C11.3858 17.581 11.496 17.6546 11.6173 17.7049C11.7386 17.7551 11.8687 17.781 12 17.781C12.2652 17.781 12.5196 17.6756 12.7071 17.4881C12.8946 17.3006 13 17.0462 13 16.781C13 16.5158 12.8946 16.2614 12.7071 16.0739C12.5196 15.8864 12.2652 15.781 12 15.781Z" fill="white"/>
</svg>
