<svg width="18" height="18" viewBox="0 0 18 18" fill="none" xmlns="http://www.w3.org/2000/svg">
<path d="M14.229 0.644473L9.00005 5.87375C7.25714 4.13141 5.51367 2.38738 3.77049 0.644473C1.75392 -1.37209 -1.37189 1.75485 0.642986 3.77197C2.38645 5.51375 4.13049 7.25807 5.87199 9.00097C4.12969 10.7447 2.38669 12.4877 0.642986 14.23C-1.37189 16.246 1.7542 19.3721 3.77049 17.3575C5.51339 15.614 7.25686 13.8703 8.99977 12.1279L14.2288 17.3575C16.2453 19.3735 19.372 16.2463 17.3563 14.23C15.6128 12.4865 13.8699 10.7436 12.1259 9.00041C13.8696 7.25694 15.6125 5.51347 17.3563 3.77028C19.3723 1.75485 16.2456 -1.37209 14.2288 0.645598" fill="white"/>
</svg>
