<svg width="24" height="29" viewBox="0 0 24 29" fill="none" xmlns="http://www.w3.org/2000/svg">
<path d="M8.25 10.25H10.125V21.5H8.25V10.25Z" fill="black"/>
<path d="M13.875 10.25H15.75V21.5H13.875V10.25Z" fill="black"/>
<path d="M0.75 5.625V7.5H2.625V26.25C2.625 26.7473 2.82254 27.2242 3.17417 27.5758C3.52581 27.9275 4.00272 28.125 4.5 28.125H19.5C19.9973 28.125 20.4742 27.9275 20.8258 27.5758C21.1775 27.2242 21.375 26.7473 21.375 26.25V7.5H23.25V5.625H0.75ZM4.5 26.25V7.5H19.5V26.25H4.5Z" fill="black"/>
<path d="M8.25 0.875H15.75V2.75H8.25V0.875Z" fill="black"/>
</svg>
